<svg width="60" height="60" viewBox="0 0 60 60" fill="none" xmlns="http://www.w3.org/2000/svg">
<g clip-path="url(#clip0_198_3518)">
<path d="M59.6911 45.0782L49.7862 55.4266C49.5709 55.6514 49.3104 55.8306 49.0209 55.9531C48.7314 56.0756 48.4191 56.1387 48.1035 56.1386H1.14988C0.925836 56.1386 0.706675 56.0748 0.519328 55.9551C0.331978 55.8354 0.184598 55.665 0.0952966 55.4648C0.00599543 55.2647 -0.0213375 55.0435 0.0166564 54.8284C0.0546501 54.6133 0.156315 54.4136 0.309162 54.2541L10.2214 43.9057C10.4362 43.6815 10.6959 43.5026 10.9844 43.3802C11.273 43.2577 11.5843 43.1942 11.8991 43.1937H58.8501C59.0742 43.1937 59.2933 43.2575 59.4808 43.3772C59.6679 43.4969 59.8152 43.6673 59.9049 43.8674C59.9941 44.0676 60.0214 44.2888 59.9834 44.5039C59.9453 44.719 59.8438 44.9186 59.6911 45.0782ZM49.7862 24.2395C49.5709 24.0147 49.3104 23.8354 49.0209 23.713C48.7314 23.5905 48.4191 23.5274 48.1035 23.5275H1.14988C0.925836 23.5275 0.706675 23.5913 0.519328 23.711C0.331978 23.8307 0.184598 24.0011 0.0952966 24.2012C0.00599543 24.4014 -0.0213375 24.6226 0.0166564 24.8377C0.0546501 25.0528 0.156315 25.2524 0.309162 25.412L10.2214 35.7604C10.4362 35.9846 10.6959 36.1634 10.9844 36.2859C11.273 36.4084 11.5843 36.4719 11.8991 36.4723H58.8501C59.0742 36.4723 59.2933 36.4086 59.4808 36.2889C59.6679 36.1692 59.8152 35.9988 59.9049 35.7987C59.9941 35.5985 60.0214 35.3772 59.9834 35.1621C59.9453 34.9471 59.8438 34.7475 59.6911 34.5879L49.7862 24.2395ZM1.14988 16.8062H48.1035C48.4191 16.8063 48.7314 16.7432 49.0209 16.6207C49.3104 16.4982 49.5709 16.319 49.7862 16.0942L59.6911 5.7458C59.8438 5.58622 59.9453 5.38662 59.9834 5.17153C60.0214 4.95643 59.9941 4.73521 59.9049 4.53504C59.8152 4.33487 59.6679 4.16447 59.4808 4.04479C59.2933 3.9251 59.0742 3.86134 58.8501 3.86133H11.8991C11.5843 3.86185 11.273 3.92531 10.9844 4.04777C10.6959 4.17024 10.4362 4.3491 10.2214 4.5733L0.311717 14.9217C0.159018 15.0811 0.0573979 15.2805 0.0193179 15.4953C-0.0187621 15.7102 0.0083539 15.9312 0.0973402 16.1313C0.186327 16.3314 0.333315 16.5018 0.52028 16.6217C0.707246 16.7415 0.926055 16.8056 1.14988 16.8062Z" fill="url(#paint0_linear_198_3518)"/>
</g>
<defs>
<linearGradient id="paint0_linear_198_3518" x1="5.0647" y1="57.3845" x2="52.8673" y2="2.06951" gradientUnits="userSpaceOnUse">
<stop offset="0.08" stop-color="#9945FF"/>
<stop offset="0.3" stop-color="#8752F3"/>
<stop offset="0.5" stop-color="#5497D5"/>
<stop offset="0.6" stop-color="#43B4CA"/>
<stop offset="0.72" stop-color="#28E0B9"/>
<stop offset="0.97" stop-color="#19FB9B"/>
</linearGradient>
<clipPath id="clip0_198_3518">
<rect width="60" height="60" fill="white"/>
</clipPath>
</defs>
</svg>
