<svg xmlns:xlink="http://www.w3.org/1999/xlink" xmlns="http://www.w3.org/2000/svg" style="width:100%;height:100%;" width="20"  height="24" ><defs><svg viewBox="0 0 20 24" id="svg11221522776"><path d="M 40.424 11.512 C 40.044 12.111 39.495 12.583 38.859 12.892 C 38.179 13.222 37.42 13.362 36.667 13.362 L 28.62 13.362 L 28.62 18.589 L 26.218 18.589 L 26.218 5.4 L 36.667 5.4 C 37.475 5.4 38.206 5.556 38.859 5.869 C 39.519 6.177 40.041 6.631 40.425 7.23 C 40.81 7.831 41 8.545 41 9.367 C 41 10.188 40.81 10.904 40.425 11.511 Z M 38.71 9.386 C 38.71 8.73 38.492 8.225 38.059 7.869 C 37.624 7.508 37.04 7.328 36.305 7.328 L 28.525 7.328 L 28.525 11.436 L 36.305 11.436 C 37.04 11.436 37.625 11.257 38.059 10.903 C 38.492 10.542 38.71 10.042 38.71 9.386 Z" fill="#FFFFFF"></path><path d="M 87.196 5.4 L 87.196 10.907 L 97.08 10.907 L 97.08 5.4 L 99.5 5.4 L 99.5 18.589 L 97.08 18.589 L 97.08 13.027 L 87.196 13.027 L 87.196 18.589 L 84.784 18.589 L 84.784 5.4 Z" fill="#FFFFFF"></path><path d="M 48.744 5.4 L 53.144 11.241 L 53.195 11.241 L 57.59 5.4 L 60.492 5.4 L 60.492 5.798 L 54.349 13.626 L 54.349 18.585 L 51.928 18.585 L 51.928 13.626 L 45.786 5.798 L 45.786 5.4 Z" fill="#FFFFFF"></path><path d="M 79.998 5.4 L 79.998 7.484 L 73.849 7.484 L 73.849 18.589 L 71.428 18.589 L 71.428 7.484 L 65.279 7.484 L 65.279 5.4 Z" fill="#FFFFFF"></path><path d="M 11.857 9.599 C 11.857 10.924 10.785 11.999 9.463 11.999 L 9.463 14.399 C 12.106 14.399 14.25 12.25 14.25 9.599 C 14.25 6.948 12.106 4.799 9.463 4.799 C 8.592 4.799 7.773 5.033 7.07 5.442 C 5.638 6.271 4.676 7.823 4.676 9.6 L 4.676 21.6 L 7.07 24 L 7.07 9.6 C 7.07 8.275 8.141 7.2 9.463 7.2 C 10.785 7.2 11.857 8.275 11.857 9.6 Z" fill="#FFFFFF"></path><path d="M 9.464 0 C 7.72 0 6.086 0.468 4.677 1.285 C 3.776 1.808 2.968 2.472 2.284 3.251 C 0.794 4.943 -0.11 7.167 -0.11 9.6 L -0.11 16.8 L 2.284 19.2 L 2.284 9.6 C 2.284 7.468 3.208 5.552 4.677 4.234 C 5.368 3.615 6.179 3.127 7.071 2.812 C 7.819 2.545 8.625 2.4 9.464 2.4 C 13.43 2.4 16.644 5.624 16.644 9.6 C 16.644 13.576 13.428 16.8 9.464 16.8 L 9.464 19.2 C 14.752 19.2 19.037 14.902 19.037 9.6 C 19.037 4.298 14.752 0 9.464 0 Z" fill="#FFFFFF"></path></svg></defs><use href="#svg11221522776"></use></svg>